<svg width="646" height="750" viewBox="0 0 646 750" fill="none" xmlns="http://www.w3.org/2000/svg">
<path opacity="0.0526316" d="M-66.9884 605.527C-50.6784 627.198 1.44994 663.463 79.4838 635.149C177.026 599.757 214.751 505.943 301.809 457.299C366.065 421.396 538.721 367.504 638.002 427.055" stroke="url(#paint0_linear_509_3833)" stroke-opacity="0.3"/>
<path opacity="0.105263" d="M-83.076 560.094C-69.1236 583.35 -21.0763 624.858 59.4935 604.846C160.206 579.83 207.543 490.468 299.215 451.179C366.876 422.181 544.227 386.609 636.731 456.198" stroke="url(#paint1_linear_509_3833)" stroke-opacity="0.3"/>
<path opacity="0.157895" d="M-95.2297 514.049C-83.7876 538.634 -40.3478 584.931 41.8751 573.439C144.654 559.075 201.084 475.144 296.366 445.641C366.692 423.865 546.795 407.002 631.508 485.868" stroke="url(#paint2_linear_509_3833)" stroke-opacity="0.3"/>
<path opacity="0.210526" d="M-103.407 467.806C-94.6004 493.45 -56.244 544.028 26.7311 541.183C130.45 537.627 195.356 460.048 293.204 440.653C365.423 426.338 546.304 428.369 622.299 515.646" stroke="url(#paint3_linear_509_3833)" stroke-opacity="0.3"/>
<path opacity="0.263158" d="M-107.608 421.779C-101.534 448.202 -68.6816 502.507 14.1367 508.34C117.66 515.632 190.33 445.253 289.671 436.179C362.993 429.482 542.671 450.386 609.115 545.118" stroke="url(#paint4_linear_509_3833)" stroke-opacity="0.3"/>
<path opacity="0.315789" d="M-107.879 376.384C-104.604 403.296 -77.6145 460.734 4.13957 475.181C106.332 493.24 185.97 430.833 285.717 432.179C359.338 433.173 535.844 472.72 592.01 573.87" stroke="url(#paint5_linear_509_3833)" stroke-opacity="0.3"/>
<path opacity="0.368421" d="M-104.307 332.026C-103.866 359.133 -83.036 419.073 -3.24179 441.976C96.5009 470.604 182.234 416.853 281.294 428.606C354.408 437.28 525.807 495.036 571.079 601.496" stroke="url(#paint6_linear_509_3833)" stroke-opacity="0.3"/>
<path opacity="0.421053" d="M-97.02 289.103C-99.4188 316.107 -84.9765 377.894 -8.01645 409.001C88.1836 447.886 179.073 403.379 276.36 425.408C348.165 441.668 512.581 517.001 546.462 627.604" stroke="url(#paint7_linear_509_3833)" stroke-opacity="0.3"/>
<path opacity="0.473684" d="M-86.1905 247.992C-91.4026 274.599 -83.506 337.554 -10.2233 376.526C81.38 425.24 176.429 390.465 270.878 422.531C340.588 446.197 496.219 538.282 518.339 651.816" stroke="url(#paint8_linear_509_3833)" stroke-opacity="0.3"/>
<path opacity="0.526316" d="M-72.0267 209.056C-79.9948 234.972 -78.7305 298.407 -9.92804 344.815C76.075 402.826 174.243 378.165 264.818 419.914C331.67 450.729 476.81 558.556 486.926 673.777" stroke="url(#paint9_linear_509_3833)" stroke-opacity="0.3"/>
<path opacity="0.578947" d="M-54.7746 172.628C-65.4116 197.57 -70.7934 260.79 -7.22502 314.126C72.2354 380.797 172.447 366.52 258.156 417.496C321.417 455.121 454.476 577.51 452.478 693.156" stroke="url(#paint10_linear_509_3833)" stroke-opacity="0.3"/>
<path opacity="0.631579" d="M-34.714 139.019C-47.9032 162.714 -59.8721 225.026 -2.23427 284.707C69.813 359.308 170.97 355.57 250.875 415.215C309.85 459.237 429.372 594.847 415.28 709.651" stroke="url(#paint11_linear_509_3833)" stroke-opacity="0.3"/>
<path opacity="0.684211" d="M-12.1545 108.507C-27.7515 130.695 -46.1764 191.416 4.89936 256.787C68.7441 338.501 169.738 345.344 242.963 413.004C297.008 462.942 401.681 610.286 375.652 722.99" stroke="url(#paint12_linear_509_3833)" stroke-opacity="0.3"/>
<path opacity="0.736842" d="M12.5654 81.3326C-5.26842 101.772 -29.9475 160.236 14.0067 230.581C68.9494 318.512 168.674 335.861 234.416 410.795C282.938 466.102 371.617 623.566 333.934 732.935" stroke="url(#paint13_linear_509_3833)" stroke-opacity="0.3"/>
<path opacity="0.789474" d="M39.0846 57.7074C19.2093 76.1727 -11.4536 131.74 24.8974 206.289C70.3361 299.474 167.699 327.139 225.238 408.525C267.706 468.594 339.419 634.454 290.495 739.29" stroke="url(#paint14_linear_509_3833)" stroke-opacity="0.3"/>
<path opacity="0.842105" d="M67.0219 37.7967C45.3228 54.0859 9.01214 106.148 37.3617 184.083C72.7986 281.501 166.732 319.179 215.438 406.126C251.387 470.3 305.348 642.737 245.72 741.891" stroke="url(#paint15_linear_509_3833)" stroke-opacity="0.3"/>
<path opacity="0.894737" d="M95.981 21.7295C72.696 35.6642 31.1353 83.6506 51.1727 164.118C76.2196 264.702 165.695 311.979 205.034 403.535C234.069 471.11 269.687 648.236 200.009 740.622" stroke="url(#paint16_linear_509_3833)" stroke-opacity="0.3"/>
<path opacity="0.947368" d="M125.554 9.59148C100.938 21.019 54.5825 64.4037 66.0884 146.522C80.4707 249.17 164.508 305.529 194.049 400.69C215.853 470.926 232.737 650.8 153.771 735.406" stroke="url(#paint17_linear_509_3833)" stroke-opacity="0.3"/>
<path d="M155.325 1.42456C129.648 10.2197 79.0062 48.5274 81.8544 131.397C85.4147 234.984 163.093 299.808 182.513 397.532C196.846 469.659 194.812 650.31 107.424 726.209" stroke="url(#paint18_linear_509_3833)" stroke-opacity="0.3"/>
<defs>
<linearGradient id="paint0_linear_509_3833" x1="303.721" y1="572.277" x2="263.811" y2="449.291" gradientUnits="userSpaceOnUse">
<stop stop-color="#3B47A3"/>
<stop offset="1" stop-color="#4751AA"/>
</linearGradient>
<linearGradient id="paint1_linear_509_3833" x1="289.082" y1="565.727" x2="262.234" y2="439.254" gradientUnits="userSpaceOnUse">
<stop stop-color="#3B47A3"/>
<stop offset="1" stop-color="#4751AA"/>
</linearGradient>
<linearGradient id="paint2_linear_509_3833" x1="274.3" y1="558.503" x2="260.803" y2="429.924" gradientUnits="userSpaceOnUse">
<stop stop-color="#3B47A3"/>
<stop offset="1" stop-color="#4751AA"/>
</linearGradient>
<linearGradient id="paint3_linear_509_3833" x1="259.446" y1="550.593" x2="259.446" y2="421.309" gradientUnits="userSpaceOnUse">
<stop stop-color="#3B47A3"/>
<stop offset="1" stop-color="#4751AA"/>
</linearGradient>
<linearGradient id="paint4_linear_509_3833" x1="244.592" y1="541.993" x2="258.089" y2="413.414" gradientUnits="userSpaceOnUse">
<stop stop-color="#3B47A3"/>
<stop offset="1" stop-color="#4751AA"/>
</linearGradient>
<linearGradient id="paint5_linear_509_3833" x1="229.811" y1="532.708" x2="256.659" y2="406.235" gradientUnits="userSpaceOnUse">
<stop stop-color="#3B47A3"/>
<stop offset="1" stop-color="#4751AA"/>
</linearGradient>
<linearGradient id="paint6_linear_509_3833" x1="215.172" y1="522.747" x2="255.082" y2="399.761" gradientUnits="userSpaceOnUse">
<stop stop-color="#3B47A3"/>
<stop offset="1" stop-color="#4751AA"/>
</linearGradient>
<linearGradient id="paint7_linear_509_3833" x1="200.747" y1="512.131" x2="253.287" y2="393.975" gradientUnits="userSpaceOnUse">
<stop stop-color="#3B47A3"/>
<stop offset="1" stop-color="#4751AA"/>
</linearGradient>
<linearGradient id="paint8_linear_509_3833" x1="186.603" y1="500.885" x2="251.204" y2="388.85" gradientUnits="userSpaceOnUse">
<stop stop-color="#3B47A3"/>
<stop offset="1" stop-color="#4751AA"/>
</linearGradient>
<linearGradient id="paint9_linear_509_3833" x1="172.804" y1="489.041" x2="248.766" y2="384.356" gradientUnits="userSpaceOnUse">
<stop stop-color="#3B47A3"/>
<stop offset="1" stop-color="#4751AA"/>
</linearGradient>
<linearGradient id="paint10_linear_509_3833" x1="159.412" y1="476.639" x2="245.908" y2="380.452" gradientUnits="userSpaceOnUse">
<stop stop-color="#3B47A3"/>
<stop offset="1" stop-color="#4751AA"/>
</linearGradient>
<linearGradient id="paint11_linear_509_3833" x1="146.481" y1="463.725" x2="242.57" y2="377.095" gradientUnits="userSpaceOnUse">
<stop stop-color="#3B47A3"/>
<stop offset="1" stop-color="#4751AA"/>
</linearGradient>
<linearGradient id="paint12_linear_509_3833" x1="134.063" y1="450.349" x2="238.697" y2="374.232" gradientUnits="userSpaceOnUse">
<stop stop-color="#3B47A3"/>
<stop offset="1" stop-color="#4751AA"/>
</linearGradient>
<linearGradient id="paint13_linear_509_3833" x1="122.205" y1="436.567" x2="234.239" y2="371.802" gradientUnits="userSpaceOnUse">
<stop stop-color="#3B47A3"/>
<stop offset="1" stop-color="#4751AA"/>
</linearGradient>
<linearGradient id="paint14_linear_509_3833" x1="110.944" y1="422.442" x2="229.151" y2="369.746" gradientUnits="userSpaceOnUse">
<stop stop-color="#3B47A3"/>
<stop offset="1" stop-color="#4751AA"/>
</linearGradient>
<linearGradient id="paint15_linear_509_3833" x1="100.314" y1="408.035" x2="223.397" y2="367.992" gradientUnits="userSpaceOnUse">
<stop stop-color="#3B47A3"/>
<stop offset="1" stop-color="#4751AA"/>
</linearGradient>
<linearGradient id="paint16_linear_509_3833" x1="90.3408" y1="393.415" x2="216.947" y2="366.47" gradientUnits="userSpaceOnUse">
<stop stop-color="#3B47A3"/>
<stop offset="1" stop-color="#4751AA"/>
</linearGradient>
<linearGradient id="paint17_linear_509_3833" x1="81.0433" y1="378.652" x2="209.779" y2="365.104" gradientUnits="userSpaceOnUse">
<stop stop-color="#3B47A3"/>
<stop offset="1" stop-color="#4751AA"/>
</linearGradient>
<linearGradient id="paint18_linear_509_3833" x1="72.4324" y1="363.817" x2="201.881" y2="363.817" gradientUnits="userSpaceOnUse">
<stop stop-color="#3B47A3"/>
<stop offset="1" stop-color="#4751AA"/>
</linearGradient>
</defs>
</svg>
