<svg width="514" height="648" viewBox="0 0 514 648" fill="none" xmlns="http://www.w3.org/2000/svg">
<path d="M596.58 438.315C596.58 484.371 563.297 526.135 509.339 556.403C455.39 586.666 380.839 605.394 298.474 605.394C216.11 605.394 141.559 586.666 87.6103 556.403C33.6515 526.135 0.368682 484.371 0.368682 438.315C0.368682 392.258 33.6515 350.495 87.6103 320.226C141.559 289.964 216.11 271.236 298.474 271.236C380.839 271.236 455.39 289.964 509.339 320.226C563.297 350.495 596.58 392.258 596.58 438.315Z" stroke="url(#paint0_linear_584_1493)" stroke-width="0.656798"/>
<path d="M497.533 492.254C497.533 520.049 477.92 545.296 446.027 563.62C414.146 581.937 370.073 593.28 321.369 593.28C272.664 593.28 228.591 581.937 196.71 563.62C164.817 545.296 145.205 520.049 145.205 492.254C145.205 464.459 164.817 439.211 196.71 420.888C228.591 402.571 272.664 391.228 321.369 391.228C370.073 391.228 414.146 402.571 446.027 420.888C477.92 439.211 497.533 464.459 497.533 492.254Z" fill="url(#paint1_radial_584_1493)" stroke="url(#paint2_linear_584_1493)" stroke-width="0.875731"/>
<ellipse cx="328.655" cy="530.465" rx="90.8165" ry="50.9438" fill="url(#paint3_radial_584_1493)" fill-opacity="0.6"/>
<g filter="url(#filter0_d_584_1493)">
<path fill-rule="evenodd" clip-rule="evenodd" d="M328.654 581.409C392.252 581.409 443.808 553.722 443.808 519.569C443.808 485.416 392.252 457.73 328.654 457.73C265.055 457.73 213.499 485.416 213.499 519.569C213.499 553.722 265.055 581.409 328.654 581.409ZM328.654 581.408C378.81 581.408 419.47 558.6 419.47 530.465C419.47 502.329 378.81 479.521 328.654 479.521C278.497 479.521 237.837 502.329 237.837 530.465C237.837 558.6 278.497 581.408 328.654 581.408Z" fill="url(#paint4_radial_584_1493)" fill-opacity="0.6" shape-rendering="crispEdges"/>
</g>
<g filter="url(#filter1_d_584_1493)">
<path fill-rule="evenodd" clip-rule="evenodd" d="M328.655 586.922C419.498 586.922 493.142 545.611 493.142 494.653C493.142 443.694 419.498 402.384 328.655 402.384C237.812 402.384 164.169 443.694 164.169 494.653C164.169 545.611 237.812 586.922 328.655 586.922ZM328.654 581.408C392.253 581.408 443.809 553.721 443.809 519.568C443.809 485.415 392.253 457.729 328.654 457.729C265.056 457.729 213.5 485.415 213.5 519.568C213.5 553.721 265.056 581.408 328.654 581.408Z" fill="url(#paint5_radial_584_1493)" shape-rendering="crispEdges"/>
</g>
<path fill-rule="evenodd" clip-rule="evenodd" d="M328.921 578.919C369.917 578.838 403.105 560.171 403.105 537.156C403.105 514.09 369.772 495.392 328.654 495.392C287.536 495.392 254.203 514.09 254.203 537.156C254.203 560.172 287.394 578.84 328.392 578.919C296.019 578.84 269.82 564.094 269.82 545.916C269.82 527.688 296.161 512.912 328.655 512.912C361.148 512.912 387.489 527.688 387.489 545.916C387.489 564.093 361.292 578.838 328.921 578.919Z" fill="url(#paint6_radial_584_1493)"/>
<path d="M452.907 514.238C452.907 533.384 439.069 550.774 416.574 563.393C394.087 576.007 363.003 583.818 328.654 583.818C294.306 583.818 263.222 576.007 240.735 563.393C218.24 550.774 204.402 533.384 204.402 514.238C204.402 495.092 218.24 477.702 240.735 465.083C263.222 452.469 294.306 444.659 328.654 444.659C363.003 444.659 394.087 452.469 416.574 465.083C439.069 477.702 452.907 495.092 452.907 514.238Z" stroke="url(#paint7_linear_584_1493)" stroke-width="0.547332"/>
<rect width="1.23664" height="1.23664" transform="matrix(0.707082 0.707131 -0.707082 0.707131 185.71 512.488)" fill="#00FFF0"/>
<rect x="198.857" y="537.146" width="2.50081" height="2.50081" transform="rotate(45 198.857 537.146)" fill="#00FFF0"/>
<rect width="1.16216" height="1.16216" transform="matrix(-0.707107 -0.707107 -0.707107 0.707107 244.62 538.915)" fill="#00FFF0"/>
<rect x="225.413" y="560.948" width="1.23664" height="1.23664" transform="rotate(45 225.413 560.948)" fill="#00FFF0"/>
<rect width="1.23664" height="1.23664" transform="matrix(0.707131 0.707082 -0.707131 0.707082 158.439 509.554)" fill="#00FFF0"/>
<rect width="1.23664" height="1.23664" transform="matrix(0.707131 0.707082 -0.707131 0.707082 165.045 467.875)" fill="#00FFF0" fill-opacity="0.5"/>
<rect x="183.959" y="492.205" width="0.865444" height="0.865444" transform="rotate(45 183.959 492.205)" fill="#00FFF0" fill-opacity="0.5"/>
<rect x="173.416" y="487.883" width="1.61248" height="1.61248" transform="rotate(45 173.416 487.883)" fill="#00FFF0" fill-opacity="0.5"/>
<circle cx="348.427" cy="530.489" r="78.8376" fill="url(#paint8_radial_584_1493)" fill-opacity="0.5"/>
<circle cx="348.426" cy="530.464" r="116.778" fill="url(#paint9_radial_584_1493)" fill-opacity="0.6"/>
<g filter="url(#filter2_d_584_1493)">
<ellipse cx="348.426" cy="566.791" rx="62.1425" ry="38.9306" fill="url(#paint10_linear_584_1493)" fill-opacity="0.5" shape-rendering="crispEdges"/>
<path d="M410.349 566.791C410.349 577.439 403.459 587.112 392.251 594.134C381.045 601.154 365.551 605.503 348.426 605.503C331.3 605.503 315.806 601.154 304.601 594.134C293.392 587.112 286.502 577.439 286.502 566.791C286.502 556.143 293.392 546.471 304.601 539.449C315.806 532.429 331.3 528.08 348.426 528.08C365.551 528.08 381.045 532.429 392.251 539.449C403.459 546.471 410.349 556.143 410.349 566.791Z" stroke="url(#paint11_linear_584_1493)" stroke-opacity="0.6" stroke-width="0.437865" shape-rendering="crispEdges"/>
</g>
<circle cx="348.426" cy="530.49" r="78.8376" fill="url(#paint12_radial_584_1493)"/>
<g filter="url(#filter3_d_584_1493)">
<ellipse cx="348.426" cy="543.525" rx="77.077" ry="45.0915" fill="url(#paint13_linear_584_1493)" fill-opacity="0.5" shape-rendering="crispEdges"/>
</g>
<g filter="url(#filter4_d_584_1493)">
<ellipse cx="348.426" cy="515.531" rx="76.293" ry="44.0487" fill="url(#paint14_linear_584_1493)" fill-opacity="0.5" shape-rendering="crispEdges"/>
<path d="M424.5 515.531C424.5 527.583 416.037 538.536 402.264 546.488C388.496 554.437 369.462 559.36 348.426 559.36C327.39 559.36 308.355 554.437 294.588 546.488C280.815 538.536 272.352 527.583 272.352 515.531C272.352 503.478 280.815 492.525 294.588 484.573C308.355 476.624 327.39 471.701 348.426 471.701C369.462 471.701 388.496 476.624 402.264 484.573C416.037 492.525 424.5 503.478 424.5 515.531Z" stroke="url(#paint15_linear_584_1493)" stroke-opacity="0.6" stroke-width="0.437865" shape-rendering="crispEdges"/>
</g>
<g filter="url(#filter5_d_584_1493)">
<ellipse cx="348.427" cy="479.493" rx="36.8483" ry="24.9751" fill="url(#paint16_linear_584_1493)" fill-opacity="0.5" shape-rendering="crispEdges"/>
</g>
<circle cx="348.426" cy="530.489" r="58.3966" fill="url(#paint17_radial_584_1493)"/>
<g filter="url(#filter6_d_584_1493)">
<path d="M407.407 492.784C407.407 503.252 400.843 512.759 390.167 519.659C379.494 526.557 364.737 530.831 348.425 530.831C332.113 530.831 317.355 526.557 306.682 519.659C296.007 512.759 289.443 503.252 289.443 492.784C289.443 482.317 296.007 472.81 306.682 465.91C317.355 459.011 332.113 454.737 348.425 454.737C364.737 454.737 379.494 459.011 390.167 465.91C400.843 472.81 407.407 482.317 407.407 492.784Z" stroke="url(#paint18_linear_584_1493)" stroke-opacity="0.6" stroke-width="0.437865" shape-rendering="crispEdges"/>
</g>
<g filter="url(#filter7_d_584_1493)">
<path d="M424.5 515.531C424.5 527.583 416.037 538.536 402.264 546.488C388.496 554.437 369.462 559.36 348.426 559.36C327.39 559.36 308.355 554.437 294.588 546.488C280.815 538.536 272.352 527.583 272.352 515.531C272.352 503.478 280.815 492.525 294.588 484.573C308.355 476.624 327.39 471.701 348.426 471.701C369.462 471.701 388.496 476.624 402.264 484.573C416.037 492.525 424.5 503.478 424.5 515.531Z" stroke="url(#paint19_linear_584_1493)" stroke-opacity="0.6" stroke-width="0.437865" shape-rendering="crispEdges"/>
</g>
<g filter="url(#filter8_d_584_1493)">
<path d="M425.284 543.525C425.284 555.867 416.732 567.08 402.818 575.221C388.908 583.358 369.679 588.398 348.426 588.398C327.174 588.398 307.944 583.358 294.035 575.221C280.121 567.08 271.568 555.867 271.568 543.525C271.568 531.183 280.121 519.97 294.035 511.83C307.944 503.692 327.174 498.653 348.426 498.653C369.679 498.653 388.908 503.692 402.818 511.83C416.732 519.97 425.284 531.183 425.284 543.525Z" stroke="url(#paint20_linear_584_1493)" stroke-opacity="0.6" stroke-width="0.437865" shape-rendering="crispEdges"/>
</g>
<g filter="url(#filter9_d_584_1493)">
<path d="M385.056 479.493C385.056 486.296 380.988 492.479 374.36 496.972C367.732 501.464 358.564 504.25 348.427 504.25C338.29 504.25 329.122 501.464 322.494 496.972C315.865 492.479 311.798 486.296 311.798 479.493C311.798 472.691 315.865 466.507 322.494 462.015C329.122 457.523 338.29 454.737 348.427 454.737C358.564 454.737 367.732 457.523 374.36 462.015C380.988 466.507 385.056 472.691 385.056 479.493Z" stroke="url(#paint21_linear_584_1493)" stroke-opacity="0.6" stroke-width="0.437865" shape-rendering="crispEdges"/>
</g>
<circle cx="224.848" cy="479.521" r="44.7415" fill="url(#paint22_radial_584_1493)" fill-opacity="0.6"/>
<g filter="url(#filter10_d_584_1493)">
<ellipse cx="219.347" cy="491.941" rx="28.1139" ry="17.6126" fill="url(#paint23_linear_584_1493)" fill-opacity="0.5" shape-rendering="crispEdges"/>
<path d="M247.242 491.941C247.242 496.702 244.161 501.046 239.111 504.21C234.063 507.372 227.076 509.335 219.347 509.335C211.618 509.335 204.632 507.372 199.584 504.21C194.533 501.046 191.452 496.702 191.452 491.941C191.452 487.18 194.533 482.837 199.584 479.673C204.632 476.511 211.618 474.548 219.347 474.548C227.076 474.548 234.063 476.511 239.111 479.673C244.161 482.837 247.242 487.18 247.242 491.941Z" stroke="url(#paint24_linear_584_1493)" stroke-opacity="0.6" stroke-width="0.437865" shape-rendering="crispEdges"/>
</g>
<circle cx="219.348" cy="475.518" r="35.667" fill="url(#paint25_radial_584_1493)"/>
<g filter="url(#filter11_d_584_1493)">
<ellipse cx="219.347" cy="481.415" rx="34.8705" ry="20.3999" fill="url(#paint26_linear_584_1493)" fill-opacity="0.5" shape-rendering="crispEdges"/>
<path d="M253.998 481.415C253.998 486.939 250.17 491.979 243.893 495.651C237.622 499.32 228.944 501.596 219.347 501.596C209.75 501.596 201.072 499.32 194.8 495.651C188.524 491.979 184.695 486.939 184.695 481.415C184.695 475.892 188.524 470.851 194.8 467.179C201.072 463.511 209.75 461.234 219.347 461.234C228.944 461.234 237.622 463.511 243.893 467.179C250.17 470.851 253.998 475.892 253.998 481.415Z" stroke="url(#paint27_linear_584_1493)" stroke-opacity="0.6" stroke-width="0.437865" shape-rendering="crispEdges"/>
</g>
<circle cx="219.348" cy="475.518" r="26.4192" fill="url(#paint28_radial_584_1493)"/>
<circle cx="219.348" cy="475.518" r="26.4192" fill="url(#paint29_radial_584_1493)"/>
<g filter="url(#filter12_d_584_1493)">
<ellipse cx="219.349" cy="468.751" rx="34.5158" ry="19.9281" fill="url(#paint30_linear_584_1493)" fill-opacity="0.5" shape-rendering="crispEdges"/>
<path d="M253.646 468.751C253.646 474.142 249.859 479.065 243.646 482.652C237.438 486.236 228.849 488.46 219.349 488.46C209.849 488.46 201.259 486.236 195.052 482.652C188.839 479.065 185.052 474.142 185.052 468.751C185.052 463.359 188.839 458.436 195.052 454.849C201.259 451.265 209.849 449.041 219.349 449.041C228.849 449.041 237.438 451.265 243.646 454.849C249.859 458.436 253.646 463.359 253.646 468.751Z" stroke="url(#paint31_linear_584_1493)" stroke-opacity="0.6" stroke-width="0.437865" shape-rendering="crispEdges"/>
</g>
<g filter="url(#filter13_d_584_1493)">
<ellipse cx="219.348" cy="458.46" rx="26.7832" ry="17.312" fill="url(#paint32_linear_584_1493)" fill-opacity="0.5" shape-rendering="crispEdges"/>
<path d="M245.912 458.46C245.912 463.141 242.976 467.409 238.168 470.517C233.361 473.624 226.708 475.553 219.348 475.553C211.988 475.553 205.335 473.624 200.528 470.517C195.719 467.409 192.784 463.141 192.784 458.46C192.784 453.779 195.719 449.511 200.528 446.402C205.335 443.296 211.988 441.367 219.348 441.367C226.708 441.367 233.361 443.296 238.168 446.402C242.976 449.511 245.912 453.779 245.912 458.46Z" stroke="url(#paint33_linear_584_1493)" stroke-opacity="0.6" stroke-width="0.437865" shape-rendering="crispEdges"/>
</g>
<g filter="url(#filter14_d_584_1493)">
<ellipse cx="219.348" cy="452.447" rx="16.6706" ry="11.299" fill="url(#paint34_linear_584_1493)" fill-opacity="0.5" shape-rendering="crispEdges"/>
<path d="M235.8 452.447C235.8 455.473 233.99 458.237 231.013 460.255C228.037 462.272 223.914 463.527 219.348 463.527C214.783 463.527 210.659 462.272 207.683 460.255C204.706 458.237 202.896 455.473 202.896 452.447C202.896 449.421 204.706 446.656 207.683 444.639C210.659 442.622 214.783 441.367 219.348 441.367C223.914 441.367 228.037 442.622 231.013 444.639C233.99 446.656 235.8 449.421 235.8 452.447Z" stroke="url(#paint35_linear_584_1493)" stroke-opacity="0.6" stroke-width="0.437865" shape-rendering="crispEdges"/>
</g>
<circle cx="219.348" cy="475.518" r="35.667" fill="url(#paint36_radial_584_1493)" fill-opacity="0.9"/>
<rect x="465.419" y="344.822" width="3.24017" height="3.24017" transform="rotate(-32.8977 465.419 344.822)" fill="#0066FF" fill-opacity="0.5"/>
<rect x="442.954" y="412.988" width="3.24017" height="3.24017" transform="rotate(-32.8977 442.954 412.988)" fill="#0066FF" fill-opacity="0.5"/>
<rect x="339.939" y="373.22" width="3.24017" height="3.24017" transform="rotate(-32.8977 339.939 373.22)" fill="#0500FF" fill-opacity="0.5"/>
<rect width="2.2616" height="2.2616" transform="matrix(0.839624 -0.543168 0.543113 0.83966 412.567 338.176)" fill="#0500FF" fill-opacity="0.5"/>
<rect width="4.21942" height="4.21942" transform="matrix(0.839652 -0.543126 0.543155 0.839632 395.723 362.779)" fill="#0500FF" fill-opacity="0.5"/>
<rect x="286.255" y="242.884" width="6.54392" height="6.54393" transform="rotate(9.6901 286.255 242.884)" fill="#0066FF" fill-opacity="0.5"/>
<rect width="3.04503" height="3.04503" transform="matrix(-0.985732 -0.168319 -0.168319 0.985733 386.654 177.444)" fill="#0066FF" fill-opacity="0.5"/>
<rect x="378.963" y="253.543" width="3.24017" height="3.24017" transform="rotate(9.6901 378.963 253.543)" fill="#0066FF" fill-opacity="0.5"/>
<rect x="158.218" y="245.094" width="3.24017" height="3.24017" transform="rotate(9.6901 158.218 245.094)" fill="#0066FF" fill-opacity="0.5"/>
<rect x="109.285" y="146.105" width="3.24017" height="3.24017" transform="rotate(9.6901 109.285 146.105)" fill="#0500FF" fill-opacity="0.5"/>
<rect width="2.2616" height="2.2616" transform="matrix(0.985735 0.168305 -0.168333 0.98573 186.471 169.451)" fill="#0500FF" fill-opacity="0.5"/>
<rect x="157.424" y="176.167" width="4.21942" height="4.21942" transform="rotate(9.6901 157.424 176.167)" fill="#0500FF" fill-opacity="0.5"/>
<rect x="61.639" y="397.684" width="1.99837" height="1.99837" transform="rotate(45 61.639 397.684)" fill="#0066FF" fill-opacity="0.5"/>
<rect x="82.8562" y="437.48" width="4.03595" height="4.03595" transform="rotate(45 82.8562 437.48)" fill="#0066FF" fill-opacity="0.5"/>
<rect width="1.87801" height="1.87801" transform="matrix(-0.707129 -0.707085 -0.707129 0.707085 156.714 440.335)" fill="#0066FF" fill-opacity="0.5"/>
<rect x="125.715" y="475.892" width="1.99837" height="1.99837" transform="rotate(45 125.715 475.892)" fill="#0066FF" fill-opacity="0.5"/>
<rect x="17.6286" y="392.948" width="1.99837" height="1.99837" transform="rotate(45 17.6286 392.948)" fill="#0066FF" fill-opacity="0.5"/>
<rect x="28.2902" y="325.684" width="1.99837" height="1.99837" transform="rotate(45 28.2902 325.684)" fill="#0500FF" fill-opacity="0.5"/>
<rect width="1.39484" height="1.39484" transform="matrix(0.707077 0.707136 -0.707077 0.707136 58.8121 364.95)" fill="#0500FF" fill-opacity="0.5"/>
<rect x="41.7993" y="357.975" width="2.60232" height="2.60232" transform="rotate(45 41.7993 357.975)" fill="#0500FF" fill-opacity="0.5"/>
<defs>
<filter id="filter0_d_584_1493" x="212.404" y="454.446" width="236.877" height="130.247" filterUnits="userSpaceOnUse" color-interpolation-filters="sRGB">
<feFlood flood-opacity="0" result="BackgroundImageFix"/>
<feColorMatrix in="SourceAlpha" type="matrix" values="0 0 0 0 0 0 0 0 0 0 0 0 0 0 0 0 0 0 127 0" result="hardAlpha"/>
<feOffset dx="2.18933"/>
<feGaussianBlur stdDeviation="1.642"/>
<feComposite in2="hardAlpha" operator="out"/>
<feColorMatrix type="matrix" values="0 0 0 0 0.119531 0 0 0 0 0.163828 0 0 0 0 0.5625 0 0 0 0.1 0"/>
<feBlend mode="normal" in2="BackgroundImageFix" result="effect1_dropShadow_584_1493"/>
<feBlend mode="normal" in="SourceGraphic" in2="effect1_dropShadow_584_1493" result="shape"/>
</filter>
<filter id="filter1_d_584_1493" x="163.074" y="398.881" width="335.541" height="191.106" filterUnits="userSpaceOnUse" color-interpolation-filters="sRGB">
<feFlood flood-opacity="0" result="BackgroundImageFix"/>
<feColorMatrix in="SourceAlpha" type="matrix" values="0 0 0 0 0 0 0 0 0 0 0 0 0 0 0 0 0 0 127 0" result="hardAlpha"/>
<feOffset dx="2.18933" dy="-0.218933"/>
<feGaussianBlur stdDeviation="1.642"/>
<feComposite in2="hardAlpha" operator="out"/>
<feColorMatrix type="matrix" values="0 0 0 0 0.119531 0 0 0 0 0.163828 0 0 0 0 0.5625 0 0 0 0.1 0"/>
<feBlend mode="normal" in2="BackgroundImageFix" result="effect1_dropShadow_584_1493"/>
<feBlend mode="normal" in="SourceGraphic" in2="effect1_dropShadow_584_1493" result="shape"/>
</filter>
<filter id="filter2_d_584_1493" x="283.437" y="525.014" width="130.853" height="84.4291" filterUnits="userSpaceOnUse" color-interpolation-filters="sRGB">
<feFlood flood-opacity="0" result="BackgroundImageFix"/>
<feColorMatrix in="SourceAlpha" type="matrix" values="0 0 0 0 0 0 0 0 0 0 0 0 0 0 0 0 0 0 127 0" result="hardAlpha"/>
<feOffset dx="0.437865" dy="0.437865"/>
<feGaussianBlur stdDeviation="1.642"/>
<feComposite in2="hardAlpha" operator="out"/>
<feColorMatrix type="matrix" values="0 0 0 0 0.440043 0 0 0 0 0.20092 0 0 0 0 0.679167 0 0 0 0.2 0"/>
<feBlend mode="normal" in2="BackgroundImageFix" result="effect1_dropShadow_584_1493"/>
<feBlend mode="normal" in="SourceGraphic" in2="effect1_dropShadow_584_1493" result="shape"/>
</filter>
<filter id="filter3_d_584_1493" x="268.503" y="495.587" width="160.722" height="96.7511" filterUnits="userSpaceOnUse" color-interpolation-filters="sRGB">
<feFlood flood-opacity="0" result="BackgroundImageFix"/>
<feColorMatrix in="SourceAlpha" type="matrix" values="0 0 0 0 0 0 0 0 0 0 0 0 0 0 0 0 0 0 127 0" result="hardAlpha"/>
<feOffset dx="0.437865" dy="0.437865"/>
<feGaussianBlur stdDeviation="1.642"/>
<feComposite in2="hardAlpha" operator="out"/>
<feColorMatrix type="matrix" values="0 0 0 0 0.440043 0 0 0 0 0.20092 0 0 0 0 0.679167 0 0 0 0.2 0"/>
<feBlend mode="normal" in2="BackgroundImageFix" result="effect1_dropShadow_584_1493"/>
<feBlend mode="normal" in="SourceGraphic" in2="effect1_dropShadow_584_1493" result="shape"/>
</filter>
<filter id="filter4_d_584_1493" x="269.287" y="468.636" width="159.154" height="94.6654" filterUnits="userSpaceOnUse" color-interpolation-filters="sRGB">
<feFlood flood-opacity="0" result="BackgroundImageFix"/>
<feColorMatrix in="SourceAlpha" type="matrix" values="0 0 0 0 0 0 0 0 0 0 0 0 0 0 0 0 0 0 127 0" result="hardAlpha"/>
<feOffset dx="0.437865" dy="0.437865"/>
<feGaussianBlur stdDeviation="1.642"/>
<feComposite in2="hardAlpha" operator="out"/>
<feColorMatrix type="matrix" values="0 0 0 0 0.440043 0 0 0 0 0.20092 0 0 0 0 0.679167 0 0 0 0.2 0"/>
<feBlend mode="normal" in2="BackgroundImageFix" result="effect1_dropShadow_584_1493"/>
<feBlend mode="normal" in="SourceGraphic" in2="effect1_dropShadow_584_1493" result="shape"/>
</filter>
<filter id="filter5_d_584_1493" x="308.733" y="451.672" width="80.2645" height="56.5182" filterUnits="userSpaceOnUse" color-interpolation-filters="sRGB">
<feFlood flood-opacity="0" result="BackgroundImageFix"/>
<feColorMatrix in="SourceAlpha" type="matrix" values="0 0 0 0 0 0 0 0 0 0 0 0 0 0 0 0 0 0 127 0" result="hardAlpha"/>
<feOffset dx="0.437865" dy="0.437865"/>
<feGaussianBlur stdDeviation="1.642"/>
<feComposite in2="hardAlpha" operator="out"/>
<feColorMatrix type="matrix" values="0 0 0 0 0.440043 0 0 0 0 0.20092 0 0 0 0 0.679167 0 0 0 0.2 0"/>
<feBlend mode="normal" in2="BackgroundImageFix" result="effect1_dropShadow_584_1493"/>
<feBlend mode="normal" in="SourceGraphic" in2="effect1_dropShadow_584_1493" result="shape"/>
</filter>
<filter id="filter6_d_584_1493" x="286.377" y="451.672" width="124.97" height="83.1002" filterUnits="userSpaceOnUse" color-interpolation-filters="sRGB">
<feFlood flood-opacity="0" result="BackgroundImageFix"/>
<feColorMatrix in="SourceAlpha" type="matrix" values="0 0 0 0 0 0 0 0 0 0 0 0 0 0 0 0 0 0 127 0" result="hardAlpha"/>
<feOffset dx="0.437865" dy="0.437865"/>
<feGaussianBlur stdDeviation="1.642"/>
<feComposite in2="hardAlpha" operator="out"/>
<feColorMatrix type="matrix" values="0 0 0 0 0.440043 0 0 0 0 0.20092 0 0 0 0 0.679167 0 0 0 0.2 0"/>
<feBlend mode="normal" in2="BackgroundImageFix" result="effect1_dropShadow_584_1493"/>
<feBlend mode="normal" in="SourceGraphic" in2="effect1_dropShadow_584_1493" result="shape"/>
</filter>
<filter id="filter7_d_584_1493" x="269.287" y="468.636" width="159.154" height="94.6654" filterUnits="userSpaceOnUse" color-interpolation-filters="sRGB">
<feFlood flood-opacity="0" result="BackgroundImageFix"/>
<feColorMatrix in="SourceAlpha" type="matrix" values="0 0 0 0 0 0 0 0 0 0 0 0 0 0 0 0 0 0 127 0" result="hardAlpha"/>
<feOffset dx="0.437865" dy="0.437865"/>
<feGaussianBlur stdDeviation="1.642"/>
<feComposite in2="hardAlpha" operator="out"/>
<feColorMatrix type="matrix" values="0 0 0 0 0.440043 0 0 0 0 0.20092 0 0 0 0 0.679167 0 0 0 0.2 0"/>
<feBlend mode="normal" in2="BackgroundImageFix" result="effect1_dropShadow_584_1493"/>
<feBlend mode="normal" in="SourceGraphic" in2="effect1_dropShadow_584_1493" result="shape"/>
</filter>
<filter id="filter8_d_584_1493" x="268.503" y="495.587" width="160.722" height="96.7511" filterUnits="userSpaceOnUse" color-interpolation-filters="sRGB">
<feFlood flood-opacity="0" result="BackgroundImageFix"/>
<feColorMatrix in="SourceAlpha" type="matrix" values="0 0 0 0 0 0 0 0 0 0 0 0 0 0 0 0 0 0 127 0" result="hardAlpha"/>
<feOffset dx="0.437865" dy="0.437865"/>
<feGaussianBlur stdDeviation="1.642"/>
<feComposite in2="hardAlpha" operator="out"/>
<feColorMatrix type="matrix" values="0 0 0 0 0.440043 0 0 0 0 0.20092 0 0 0 0 0.679167 0 0 0 0.2 0"/>
<feBlend mode="normal" in2="BackgroundImageFix" result="effect1_dropShadow_584_1493"/>
<feBlend mode="normal" in="SourceGraphic" in2="effect1_dropShadow_584_1493" result="shape"/>
</filter>
<filter id="filter9_d_584_1493" x="308.733" y="451.672" width="80.2645" height="56.5182" filterUnits="userSpaceOnUse" color-interpolation-filters="sRGB">
<feFlood flood-opacity="0" result="BackgroundImageFix"/>
<feColorMatrix in="SourceAlpha" type="matrix" values="0 0 0 0 0 0 0 0 0 0 0 0 0 0 0 0 0 0 127 0" result="hardAlpha"/>
<feOffset dx="0.437865" dy="0.437865"/>
<feGaussianBlur stdDeviation="1.642"/>
<feComposite in2="hardAlpha" operator="out"/>
<feColorMatrix type="matrix" values="0 0 0 0 0.440043 0 0 0 0 0.20092 0 0 0 0 0.679167 0 0 0 0.2 0"/>
<feBlend mode="normal" in2="BackgroundImageFix" result="effect1_dropShadow_584_1493"/>
<feBlend mode="normal" in="SourceGraphic" in2="effect1_dropShadow_584_1493" result="shape"/>
</filter>
<filter id="filter10_d_584_1493" x="188.387" y="471.482" width="62.7958" height="41.7931" filterUnits="userSpaceOnUse" color-interpolation-filters="sRGB">
<feFlood flood-opacity="0" result="BackgroundImageFix"/>
<feColorMatrix in="SourceAlpha" type="matrix" values="0 0 0 0 0 0 0 0 0 0 0 0 0 0 0 0 0 0 127 0" result="hardAlpha"/>
<feOffset dx="0.437865" dy="0.437865"/>
<feGaussianBlur stdDeviation="1.642"/>
<feComposite in2="hardAlpha" operator="out"/>
<feColorMatrix type="matrix" values="0 0 0 0 0.440043 0 0 0 0 0.20092 0 0 0 0 0.679167 0 0 0 0.2 0"/>
<feBlend mode="normal" in2="BackgroundImageFix" result="effect1_dropShadow_584_1493"/>
<feBlend mode="normal" in="SourceGraphic" in2="effect1_dropShadow_584_1493" result="shape"/>
</filter>
<filter id="filter11_d_584_1493" x="181.63" y="458.169" width="76.3089" height="47.3678" filterUnits="userSpaceOnUse" color-interpolation-filters="sRGB">
<feFlood flood-opacity="0" result="BackgroundImageFix"/>
<feColorMatrix in="SourceAlpha" type="matrix" values="0 0 0 0 0 0 0 0 0 0 0 0 0 0 0 0 0 0 127 0" result="hardAlpha"/>
<feOffset dx="0.437865" dy="0.437865"/>
<feGaussianBlur stdDeviation="1.642"/>
<feComposite in2="hardAlpha" operator="out"/>
<feColorMatrix type="matrix" values="0 0 0 0 0.440043 0 0 0 0 0.20092 0 0 0 0 0.679167 0 0 0 0.2 0"/>
<feBlend mode="normal" in2="BackgroundImageFix" result="effect1_dropShadow_584_1493"/>
<feBlend mode="normal" in="SourceGraphic" in2="effect1_dropShadow_584_1493" result="shape"/>
</filter>
<filter id="filter12_d_584_1493" x="181.987" y="445.976" width="75.5995" height="46.4242" filterUnits="userSpaceOnUse" color-interpolation-filters="sRGB">
<feFlood flood-opacity="0" result="BackgroundImageFix"/>
<feColorMatrix in="SourceAlpha" type="matrix" values="0 0 0 0 0 0 0 0 0 0 0 0 0 0 0 0 0 0 127 0" result="hardAlpha"/>
<feOffset dx="0.437865" dy="0.437865"/>
<feGaussianBlur stdDeviation="1.642"/>
<feComposite in2="hardAlpha" operator="out"/>
<feColorMatrix type="matrix" values="0 0 0 0 0.440043 0 0 0 0 0.20092 0 0 0 0 0.679167 0 0 0 0.2 0"/>
<feBlend mode="normal" in2="BackgroundImageFix" result="effect1_dropShadow_584_1493"/>
<feBlend mode="normal" in="SourceGraphic" in2="effect1_dropShadow_584_1493" result="shape"/>
</filter>
<filter id="filter13_d_584_1493" x="189.719" y="438.302" width="60.1344" height="41.192" filterUnits="userSpaceOnUse" color-interpolation-filters="sRGB">
<feFlood flood-opacity="0" result="BackgroundImageFix"/>
<feColorMatrix in="SourceAlpha" type="matrix" values="0 0 0 0 0 0 0 0 0 0 0 0 0 0 0 0 0 0 127 0" result="hardAlpha"/>
<feOffset dx="0.437865" dy="0.437865"/>
<feGaussianBlur stdDeviation="1.642"/>
<feComposite in2="hardAlpha" operator="out"/>
<feColorMatrix type="matrix" values="0 0 0 0 0.440043 0 0 0 0 0.20092 0 0 0 0 0.679167 0 0 0 0.2 0"/>
<feBlend mode="normal" in2="BackgroundImageFix" result="effect1_dropShadow_584_1493"/>
<feBlend mode="normal" in="SourceGraphic" in2="effect1_dropShadow_584_1493" result="shape"/>
</filter>
<filter id="filter14_d_584_1493" x="199.831" y="438.302" width="39.9091" height="29.1659" filterUnits="userSpaceOnUse" color-interpolation-filters="sRGB">
<feFlood flood-opacity="0" result="BackgroundImageFix"/>
<feColorMatrix in="SourceAlpha" type="matrix" values="0 0 0 0 0 0 0 0 0 0 0 0 0 0 0 0 0 0 127 0" result="hardAlpha"/>
<feOffset dx="0.437865" dy="0.437865"/>
<feGaussianBlur stdDeviation="1.642"/>
<feComposite in2="hardAlpha" operator="out"/>
<feColorMatrix type="matrix" values="0 0 0 0 0.440043 0 0 0 0 0.20092 0 0 0 0 0.679167 0 0 0 0.2 0"/>
<feBlend mode="normal" in2="BackgroundImageFix" result="effect1_dropShadow_584_1493"/>
<feBlend mode="normal" in="SourceGraphic" in2="effect1_dropShadow_584_1493" result="shape"/>
</filter>
<linearGradient id="paint0_linear_584_1493" x1="188.674" y1="721.783" x2="267.028" y2="343.254" gradientUnits="userSpaceOnUse">
<stop stop-color="white"/>
<stop offset="0.508554" stop-color="#30FFFF"/>
<stop offset="1" stop-color="white" stop-opacity="0"/>
</linearGradient>
<radialGradient id="paint1_radial_584_1493" cx="0" cy="0" r="1" gradientUnits="userSpaceOnUse" gradientTransform="translate(150.423 585.689) rotate(-45.6853) scale(189.987 338.589)">
<stop stop-color="white"/>
<stop offset="0.462474" stop-color="#3A45AA"/>
<stop offset="1" stop-color="#3A45AA" stop-opacity="0"/>
</radialGradient>
<linearGradient id="paint2_linear_584_1493" x1="231.518" y1="589.757" x2="322.54" y2="438.835" gradientUnits="userSpaceOnUse">
<stop stop-color="white"/>
<stop offset="0.442828" stop-color="#30FFFF"/>
<stop offset="1" stop-color="white" stop-opacity="0"/>
</linearGradient>
<radialGradient id="paint3_radial_584_1493" cx="0" cy="0" r="1" gradientUnits="userSpaceOnUse" gradientTransform="translate(375.927 483.715) rotate(141.315) scale(132.091 235.476)">
<stop offset="0.39201" stop-color="#1B29A4" stop-opacity="0"/>
<stop offset="0.841913" stop-color="#2938BB" stop-opacity="0.5"/>
<stop offset="1" stop-color="#172075" stop-opacity="0.5"/>
</radialGradient>
<radialGradient id="paint4_radial_584_1493" cx="0" cy="0" r="1" gradientUnits="userSpaceOnUse" gradientTransform="translate(388.594 462.82) rotate(141.571) scale(183.636 324.429)">
<stop offset="0.39201" stop-color="#6675FF" stop-opacity="0"/>
<stop offset="0.841913" stop-color="#6675FF" stop-opacity="0.5"/>
<stop offset="1" stop-color="#192059" stop-opacity="0"/>
</radialGradient>
<radialGradient id="paint5_radial_584_1493" cx="0" cy="0" r="1" gradientUnits="userSpaceOnUse" gradientTransform="translate(414.274 409.979) rotate(140.348) scale(266.883 475.768)">
<stop offset="0.39201" stop-color="#6675FF" stop-opacity="0"/>
<stop offset="0.841913" stop-color="#6675FF" stop-opacity="0.5"/>
<stop offset="1" stop-color="#DBDEFF" stop-opacity="0"/>
</radialGradient>
<radialGradient id="paint6_radial_584_1493" cx="0" cy="0" r="1" gradientUnits="userSpaceOnUse" gradientTransform="translate(367.408 498.83) rotate(141.315) scale(108.288 193.043)">
<stop offset="0.39201" stop-color="#17217A" stop-opacity="0"/>
<stop offset="0.841913" stop-color="#1A2374" stop-opacity="0.5"/>
<stop offset="1" stop-color="#151E6C" stop-opacity="0.5"/>
</radialGradient>
<linearGradient id="paint7_linear_584_1493" x1="265.299" y1="581.364" x2="317.52" y2="442.074" gradientUnits="userSpaceOnUse">
<stop stop-color="white"/>
<stop offset="0.508554" stop-color="#30FFFF"/>
<stop offset="1" stop-color="white" stop-opacity="0"/>
</linearGradient>
<radialGradient id="paint8_radial_584_1493" cx="0" cy="0" r="1" gradientUnits="userSpaceOnUse" gradientTransform="translate(316.764 619.286) rotate(-64.0757) scale(176.976)">
<stop offset="0.107416" stop-color="white" stop-opacity="0.5"/>
<stop offset="0.328407" stop-color="#8FB5FF" stop-opacity="0.5"/>
<stop offset="0.629496" stop-color="#220C7A" stop-opacity="0"/>
</radialGradient>
<radialGradient id="paint9_radial_584_1493" cx="0" cy="0" r="1" gradientUnits="userSpaceOnUse" gradientTransform="translate(348.426 530.464) rotate(90) scale(116.778)">
<stop stop-color="#3E5DFF"/>
<stop offset="1" stop-color="#3E5DFF" stop-opacity="0"/>
</radialGradient>
<linearGradient id="paint10_linear_584_1493" x1="410.568" y1="558.365" x2="286.322" y2="567.332" gradientUnits="userSpaceOnUse">
<stop stop-color="#4E53BE" stop-opacity="0.5"/>
<stop offset="0.885417" stop-color="#33CEFF" stop-opacity="0.7"/>
<stop offset="1" stop-color="white" stop-opacity="0.5"/>
</linearGradient>
<linearGradient id="paint11_linear_584_1493" x1="359.287" y1="622.626" x2="367.034" y2="536.483" gradientUnits="userSpaceOnUse">
<stop stop-color="white"/>
<stop offset="1" stop-color="white" stop-opacity="0"/>
</linearGradient>
<radialGradient id="paint12_radial_584_1493" cx="0" cy="0" r="1" gradientUnits="userSpaceOnUse" gradientTransform="translate(269.588 559.169) rotate(-19.6638) scale(167.44)">
<stop offset="0.249306" stop-color="white"/>
<stop offset="0.48315" stop-color="#8FF2FF" stop-opacity="0.5"/>
<stop offset="0.627037" stop-color="#220C7A" stop-opacity="0.1"/>
</radialGradient>
<linearGradient id="paint13_linear_584_1493" x1="417.579" y1="540.918" x2="271.414" y2="545.558" gradientUnits="userSpaceOnUse">
<stop stop-color="#4E53BE" stop-opacity="0.1"/>
<stop offset="1" stop-color="#33CEFF"/>
</linearGradient>
<linearGradient id="paint14_linear_584_1493" x1="406.275" y1="511.612" x2="272.228" y2="517.642" gradientUnits="userSpaceOnUse">
<stop stop-color="#4E53BE" stop-opacity="0.1"/>
<stop offset="0.997187" stop-color="#33CEFF"/>
</linearGradient>
<linearGradient id="paint15_linear_584_1493" x1="361.76" y1="578.706" x2="369.848" y2="481.12" gradientUnits="userSpaceOnUse">
<stop stop-color="white"/>
<stop offset="1" stop-color="white" stop-opacity="0"/>
</linearGradient>
<linearGradient id="paint16_linear_584_1493" x1="385.275" y1="474.088" x2="311.546" y2="479.006" gradientUnits="userSpaceOnUse">
<stop stop-color="#4E53BE" stop-opacity="0.1"/>
<stop offset="1" stop-color="#33CEFF" stop-opacity="0.9"/>
</linearGradient>
<radialGradient id="paint17_radial_584_1493" cx="0" cy="0" r="1" gradientUnits="userSpaceOnUse" gradientTransform="translate(359.805 640.555) rotate(-83.1976) scale(169.657)">
<stop offset="0.338542" stop-color="#68FFF6" stop-opacity="0.1"/>
<stop offset="0.802083" stop-color="#FFBFE9"/>
<stop offset="1" stop-color="white"/>
</radialGradient>
<linearGradient id="paint18_linear_584_1493" x1="355.137" y1="531.05" x2="359.093" y2="461.658" gradientUnits="userSpaceOnUse">
<stop stop-color="white"/>
<stop offset="1" stop-color="white" stop-opacity="0"/>
</linearGradient>
<linearGradient id="paint19_linear_584_1493" x1="352.217" y1="560.735" x2="361.25" y2="478.505" gradientUnits="userSpaceOnUse">
<stop stop-color="white"/>
<stop offset="1" stop-color="white" stop-opacity="0"/>
</linearGradient>
<linearGradient id="paint20_linear_584_1493" x1="354.043" y1="590.123" x2="355.566" y2="503.591" gradientUnits="userSpaceOnUse">
<stop stop-color="white"/>
<stop offset="1" stop-color="white" stop-opacity="0"/>
</linearGradient>
<linearGradient id="paint21_linear_584_1493" x1="354.867" y1="515.313" x2="360.237" y2="460.126" gradientUnits="userSpaceOnUse">
<stop stop-color="white"/>
<stop offset="1" stop-color="white" stop-opacity="0"/>
</linearGradient>
<radialGradient id="paint22_radial_584_1493" cx="0" cy="0" r="1" gradientUnits="userSpaceOnUse" gradientTransform="translate(224.848 479.521) rotate(90) scale(44.7415)">
<stop stop-color="#FF65C1"/>
<stop offset="1" stop-color="#FF65C1" stop-opacity="0"/>
</radialGradient>
<linearGradient id="paint23_linear_584_1493" x1="247.461" y1="488.129" x2="191.251" y2="492.186" gradientUnits="userSpaceOnUse">
<stop stop-color="#4E53BE" stop-opacity="0.5"/>
<stop offset="0.885417" stop-color="#FB33FF" stop-opacity="0.5"/>
<stop offset="1" stop-color="white" stop-opacity="0.5"/>
</linearGradient>
<linearGradient id="paint24_linear_584_1493" x1="224.261" y1="517.201" x2="227.766" y2="478.23" gradientUnits="userSpaceOnUse">
<stop stop-color="white"/>
<stop offset="1" stop-color="white" stop-opacity="0"/>
</linearGradient>
<radialGradient id="paint25_radial_584_1493" cx="0" cy="0" r="1" gradientUnits="userSpaceOnUse" gradientTransform="translate(183.681 488.492) rotate(-19.6638) scale(75.7515)">
<stop offset="0.249306" stop-color="white"/>
<stop offset="0.48315" stop-color="#FF8FED" stop-opacity="0.5"/>
<stop offset="0.627037" stop-color="#220C7A" stop-opacity="0.5"/>
</radialGradient>
<linearGradient id="paint26_linear_584_1493" x1="254.217" y1="477" x2="184.551" y2="482.384" gradientUnits="userSpaceOnUse">
<stop stop-color="#4E53BE" stop-opacity="0.5"/>
<stop offset="0.885417" stop-color="#FB33FF" stop-opacity="0.5"/>
<stop offset="1" stop-color="white" stop-opacity="0.5"/>
</linearGradient>
<linearGradient id="paint27_linear_584_1493" x1="225.442" y1="510.673" x2="229.236" y2="465.487" gradientUnits="userSpaceOnUse">
<stop stop-color="white"/>
<stop offset="1" stop-color="white" stop-opacity="0"/>
</linearGradient>
<radialGradient id="paint28_radial_584_1493" cx="0" cy="0" r="1" gradientUnits="userSpaceOnUse" gradientTransform="translate(227.838 501.938) rotate(-107.749) scale(53.0692)">
<stop offset="0.223958" stop-color="white"/>
<stop offset="0.466382" stop-color="#FFCEF1"/>
<stop offset="0.682292" stop-color="#B6B9FF"/>
<stop offset="0.881791" stop-color="white"/>
</radialGradient>
<radialGradient id="paint29_radial_584_1493" cx="0" cy="0" r="1" gradientUnits="userSpaceOnUse" gradientTransform="translate(232.401 501.938) rotate(-100.377) scale(72.4692)">
<stop stop-color="white"/>
<stop offset="1" stop-color="white" stop-opacity="0"/>
</radialGradient>
<linearGradient id="paint30_linear_584_1493" x1="253.865" y1="464.437" x2="184.918" y2="469.837" gradientUnits="userSpaceOnUse">
<stop stop-color="#4E53BE" stop-opacity="0.5"/>
<stop offset="0.885417" stop-color="#FB33FF" stop-opacity="0.5"/>
<stop offset="1" stop-color="white" stop-opacity="0.5"/>
</linearGradient>
<linearGradient id="paint31_linear_584_1493" x1="225.382" y1="497.332" x2="229.041" y2="453.183" gradientUnits="userSpaceOnUse">
<stop stop-color="white"/>
<stop offset="1" stop-color="white" stop-opacity="0"/>
</linearGradient>
<linearGradient id="paint32_linear_584_1493" x1="246.131" y1="454.713" x2="192.565" y2="458.46" gradientUnits="userSpaceOnUse">
<stop stop-color="#4E53BE" stop-opacity="0.5"/>
<stop offset="0.885417" stop-color="#FB33FF" stop-opacity="0.5"/>
<stop offset="1" stop-color="white" stop-opacity="0.5"/>
</linearGradient>
<linearGradient id="paint33_linear_584_1493" x1="224.029" y1="483.289" x2="227.582" y2="445.002" gradientUnits="userSpaceOnUse">
<stop stop-color="white"/>
<stop offset="1" stop-color="white" stop-opacity="0"/>
</linearGradient>
<linearGradient id="paint34_linear_584_1493" x1="236.019" y1="450.001" x2="202.663" y2="452.227" gradientUnits="userSpaceOnUse">
<stop stop-color="#4E53BE" stop-opacity="0.5"/>
<stop offset="0.885417" stop-color="#FB33FF" stop-opacity="0.5"/>
<stop offset="1" stop-color="white" stop-opacity="0.5"/>
</linearGradient>
<linearGradient id="paint35_linear_584_1493" x1="222.262" y1="468.652" x2="224.691" y2="443.685" gradientUnits="userSpaceOnUse">
<stop stop-color="white"/>
<stop offset="1" stop-color="white" stop-opacity="0"/>
</linearGradient>
<radialGradient id="paint36_radial_584_1493" cx="0" cy="0" r="1" gradientUnits="userSpaceOnUse" gradientTransform="translate(205.023 515.69) rotate(-65.1363) scale(112.469)">
<stop offset="0.249306" stop-color="white"/>
<stop offset="0.48315" stop-color="#FF8FED" stop-opacity="0.5"/>
<stop offset="0.627037" stop-color="#220C7A" stop-opacity="0"/>
</radialGradient>
</defs>
</svg>
