<svg width="163" height="67" viewBox="0 0 163 67" fill="none" xmlns="http://www.w3.org/2000/svg">
<path d="M93.5724 40.1796H86.7332V56.0352H93.5724C94.6164 56.036 95.6502 55.8327 96.6149 55.437C97.5796 55.0412 98.4562 54.4608 99.1945 53.7289C99.9329 52.997 100.519 52.1279 100.918 51.1713C101.317 50.2148 101.523 49.1895 101.523 48.1542V48.0569C101.522 47.0219 101.316 45.9971 100.917 45.0411C100.517 44.085 99.9311 43.2164 99.1929 42.4849C98.4546 41.7534 97.5783 41.1733 96.6139 40.7777C95.6495 40.3822 94.616 40.1789 93.5724 40.1796V40.1796ZM93.6068 52.6437H90.0057V43.7668C90.1087 43.7668 91.7811 43.7559 93.5798 43.7449H93.6068C94.7973 43.7449 95.939 44.214 96.7808 45.0488C97.6227 45.8837 98.0956 47.0161 98.0956 48.1968C98.0956 49.3775 97.6227 50.5098 96.7808 51.3447C95.939 52.1796 94.7973 52.6486 93.6068 52.6486V52.6437Z" fill="#121045"/>
<path d="M39.2358 33.5279L58.0016 66.2169L77.0088 33.1704L58.0016 1.19653L39.2358 33.5279Z" fill="url(#paint0_linear_583_1521)"/>
<path d="M37.4027 33.5109L47.5415 51.1711L38.8875 66.2169L20.1218 33.5279L38.8875 1.19653L47.6261 15.8969L37.4027 33.5109Z" fill="url(#paint1_linear_583_1521)"/>
<path d="M26.9978 17.693L28.4459 15.3716L19.7552 0.345337L0.562744 33.7104L19.8434 66.6546L28.3809 51.9105L27.0456 49.4334L19.8434 61.8173L3.40856 33.7104L19.8349 5.32614L26.9978 17.693Z" fill="url(#paint2_linear_583_1521)"/>
<path d="M136.733 50.4196L140.47 56.0036H136.452L132.591 50.5108H131.252L132.478 47.2629H135.559C135.559 47.2629 137.08 47.0683 137.08 45.3671C137.08 45.3671 137.042 43.8191 135.794 43.8191H129.67V56.0036H126.471V40.3389H135.241C136.606 40.3389 137.916 40.877 138.882 41.8347C139.848 42.7925 140.39 44.0916 140.39 45.4461C140.477 47.8855 139.669 49.5684 136.733 50.4196Z" fill="#121045"/>
<path d="M108.31 55.9574L116.589 40.1869L124.688 55.9574H120.817L120.281 54.953H115.159L116.291 51.5858H118.434L116.41 47.6885L112.122 55.9574H108.31Z" fill="#121045"/>
<path d="M103.032 40.2634H106.694V56.175H102.939L103.032 40.2634Z" fill="#121045"/>
<path d="M140.615 40.2002H144.815L148.479 45.7404L152.411 40.2002H156.522L150.133 49.3738V56.1543H146.737V48.975L140.615 40.2002Z" fill="#121045"/>
<path d="M87.1206 37.153V10.2644L105.299 24.8931V9.95557H111.013V37.2563L92.8343 22.5243V37.2563L87.1206 37.153Z" fill="#5C5AB7"/>
<path d="M113.624 10.1793V37.5068H119.663V26.6271H133.653V20.9374H119.562V16.1463H135.564V10.1793H113.624Z" fill="#5C5AB7"/>
<path d="M138.383 10.1573V16.2459H147.441V37.3073H153.682V16.1462H162.437V10.1573H138.383Z" fill="#5C5AB7"/>
<defs>
<linearGradient id="paint0_linear_583_1521" x1="5.41439" y1="35.7099" x2="138.938" y2="27.0438" gradientUnits="userSpaceOnUse">
<stop stop-color="#5C5AB7"/>
<stop offset="1" stop-color="#F197F3"/>
</linearGradient>
<linearGradient id="paint1_linear_583_1521" x1="17.7396" y1="33.7067" x2="50.8746" y2="33.7067" gradientUnits="userSpaceOnUse">
<stop stop-color="#3B47A3"/>
<stop offset="1" stop-color="#4751AA"/>
</linearGradient>
<linearGradient id="paint2_linear_583_1521" x1="-24.4034" y1="35.5429" x2="74.3579" y2="30.9032" gradientUnits="userSpaceOnUse">
<stop stop-color="#5C5AB7"/>
<stop offset="1" stop-color="#F197F3"/>
</linearGradient>
</defs>
</svg>
