<svg width="189" height="304" viewBox="0 0 189 304" fill="none" xmlns="http://www.w3.org/2000/svg">
<g filter="url(#filter0_dd_509_1352)">
<circle cx="91.1864" cy="272.24" r="16.3199" fill="url(#paint0_linear_509_1352)" shape-rendering="crispEdges"/>
</g>
<g filter="url(#filter1_dd_509_1352)">
<circle cx="140.956" cy="220.152" r="12.0736" fill="url(#paint1_linear_509_1352)" shape-rendering="crispEdges"/>
</g>
<circle cx="65.7387" cy="123.214" r="122.527" fill="url(#paint2_radial_509_1352)" fill-opacity="0.6"/>
<g filter="url(#filter2_d_509_1352)">
<ellipse cx="90.9415" cy="150.7" rx="73.4123" ry="45.9908" fill="url(#paint3_linear_509_1352)" fill-opacity="0.5" shape-rendering="crispEdges"/>
<path d="M164.121 150.7C164.121 163.291 155.974 174.725 142.728 183.023C129.486 191.319 111.177 196.458 90.9415 196.458C70.706 196.458 52.3972 191.319 39.1547 183.023C25.909 174.725 17.7619 163.291 17.7619 150.7C17.7619 138.108 25.909 126.674 39.1547 118.376C52.3972 110.08 70.706 104.942 90.9415 104.942C111.177 104.942 129.486 110.08 142.728 118.376C155.974 126.674 164.121 138.108 164.121 150.7Z" stroke="url(#paint4_linear_509_1352)" stroke-opacity="0.6" stroke-width="0.465527" shape-rendering="crispEdges"/>
</g>
<circle cx="90.9411" cy="107.815" r="93.1352" fill="url(#paint5_radial_509_1352)"/>
<ellipse cx="90.9405" cy="123.214" rx="91.0553" ry="53.2691" fill="url(#paint6_linear_509_1352)" fill-opacity="0.5"/>
<path d="M181.763 123.214C181.763 137.807 171.651 151.061 155.209 160.68C138.773 170.296 116.051 176.25 90.9405 176.25C65.8302 176.25 43.1085 170.296 26.6723 160.68C10.2304 151.061 0.118017 137.807 0.118017 123.214C0.118017 108.621 10.2304 95.3669 26.6723 85.7481C43.1085 76.1326 65.8302 70.1778 90.9405 70.1778C116.051 70.1778 138.773 76.1326 155.209 85.7481C171.651 95.3669 181.763 108.621 181.763 123.214Z" stroke="url(#paint7_linear_509_1352)" stroke-opacity="0.6" stroke-width="0.465527"/>
<circle cx="90.9408" cy="107.815" r="68.9871" fill="url(#paint8_radial_509_1352)"/>
<circle cx="90.9408" cy="107.815" r="68.9871" fill="url(#paint9_radial_509_1352)"/>
<g filter="url(#filter3_d_509_1352)">
<ellipse cx="90.9409" cy="90.1424" rx="90.1291" ry="52.0372" fill="url(#paint10_linear_509_1352)" fill-opacity="0.5" shape-rendering="crispEdges"/>
<path d="M180.837 90.1424C180.837 104.394 170.83 117.34 154.555 126.737C138.287 136.13 115.796 141.947 90.9409 141.947C66.0858 141.947 43.5952 136.13 27.3264 126.737C11.0514 117.34 1.04453 104.394 1.04453 90.1424C1.04453 75.8911 11.0514 62.9447 27.3264 53.5481C43.5952 44.1551 66.0858 38.338 90.9409 38.338C115.796 38.338 138.287 44.1551 154.555 53.5481C170.83 62.9447 180.837 75.8911 180.837 90.1424Z" stroke="url(#paint11_linear_509_1352)" stroke-opacity="0.6" stroke-width="0.465527" shape-rendering="crispEdges"/>
</g>
<g filter="url(#filter4_d_509_1352)">
<ellipse cx="90.9405" cy="63.2712" rx="69.9376" ry="45.2058" fill="url(#paint12_linear_509_1352)" fill-opacity="0.5" shape-rendering="crispEdges"/>
<path d="M160.645 63.2712C160.645 75.649 152.883 86.8866 140.267 95.0411C127.654 103.194 110.215 108.244 90.9405 108.244C71.6659 108.244 54.2268 103.194 41.6135 95.0411C28.9979 86.8866 21.2357 75.649 21.2357 63.2712C21.2357 50.8934 28.9979 39.6558 41.6135 31.5014C54.2268 23.3485 71.6659 18.2982 90.9405 18.2982C110.215 18.2982 127.654 23.3485 140.267 31.5014C152.883 39.6558 160.645 50.8934 160.645 63.2712Z" stroke="url(#paint13_linear_509_1352)" stroke-opacity="0.6" stroke-width="0.465527" shape-rendering="crispEdges"/>
</g>
<ellipse cx="90.9415" cy="47.5698" rx="43.5309" ry="29.5044" fill="url(#paint14_linear_509_1352)" fill-opacity="0.5"/>
<path d="M134.24 47.5698C134.24 55.617 129.427 62.9292 121.592 68.2399C113.758 73.5498 102.922 76.8415 90.9415 76.8415C78.9611 76.8415 68.1253 73.5498 60.2911 68.2399C52.4557 62.9292 47.6434 55.617 47.6434 47.5698C47.6434 39.5227 52.4557 32.2105 60.2911 26.8997C68.1253 21.5899 78.9611 18.2982 90.9415 18.2982C102.922 18.2982 113.758 21.5899 121.592 26.8997C129.427 32.2105 134.24 39.5227 134.24 47.5698Z" stroke="url(#paint15_linear_509_1352)" stroke-opacity="0.6" stroke-width="0.465527"/>
<ellipse cx="90.9412" cy="37.4977" rx="25.2023" ry="17.3408" fill="url(#paint16_linear_509_1352)" fill-opacity="0.5"/>
<path d="M115.911 37.4977C115.911 42.1876 113.148 46.459 108.63 49.5678C104.113 52.6759 97.8595 54.6058 90.9412 54.6058C84.0228 54.6058 77.7696 52.6759 73.2524 49.5678C68.7342 46.459 65.9717 42.1876 65.9717 37.4977C65.9717 32.8079 68.7342 28.5365 73.2524 25.4277C77.7696 22.3196 84.0228 20.3897 90.9412 20.3897C97.8595 20.3897 104.113 22.3196 108.63 25.4277C113.148 28.5365 115.911 32.8079 115.911 37.4977Z" stroke="url(#paint17_linear_509_1352)" stroke-opacity="0.6" stroke-width="0.465527"/>
<circle cx="90.9411" cy="107.815" r="93.1352" fill="url(#paint18_radial_509_1352)" fill-opacity="0.3"/>
<defs>
<filter id="filter0_dd_509_1352" x="58.573" y="238.695" width="65.2266" height="65.2268" filterUnits="userSpaceOnUse" color-interpolation-filters="sRGB">
<feFlood flood-opacity="0" result="BackgroundImageFix"/>
<feColorMatrix in="SourceAlpha" type="matrix" values="0 0 0 0 0 0 0 0 0 0 0 0 0 0 0 0 0 0 127 0" result="hardAlpha"/>
<feOffset dy="-0.931053"/>
<feGaussianBlur stdDeviation="8.14672"/>
<feComposite in2="hardAlpha" operator="out"/>
<feColorMatrix type="matrix" values="0 0 0 0 0.371081 0 0 0 0 0.235903 0 0 0 0 0.658333 0 0 0 1 0"/>
<feBlend mode="normal" in2="BackgroundImageFix" result="effect1_dropShadow_509_1352"/>
<feColorMatrix in="SourceAlpha" type="matrix" values="0 0 0 0 0 0 0 0 0 0 0 0 0 0 0 0 0 0 127 0" result="hardAlpha"/>
<feOffset dy="-0.931053"/>
<feGaussianBlur stdDeviation="4.65527"/>
<feComposite in2="hardAlpha" operator="out"/>
<feColorMatrix type="matrix" values="0 0 0 0 0.48825 0 0 0 0 0.372778 0 0 0 0 0.733333 0 0 0 1 0"/>
<feBlend mode="normal" in2="effect1_dropShadow_509_1352" result="effect2_dropShadow_509_1352"/>
<feBlend mode="normal" in="SourceGraphic" in2="effect2_dropShadow_509_1352" result="shape"/>
</filter>
<filter id="filter1_dd_509_1352" x="112.589" y="190.854" width="56.7341" height="56.7341" filterUnits="userSpaceOnUse" color-interpolation-filters="sRGB">
<feFlood flood-opacity="0" result="BackgroundImageFix"/>
<feColorMatrix in="SourceAlpha" type="matrix" values="0 0 0 0 0 0 0 0 0 0 0 0 0 0 0 0 0 0 127 0" result="hardAlpha"/>
<feOffset dy="-0.931053"/>
<feGaussianBlur stdDeviation="8.14672"/>
<feComposite in2="hardAlpha" operator="out"/>
<feColorMatrix type="matrix" values="0 0 0 0 0.371081 0 0 0 0 0.235903 0 0 0 0 0.658333 0 0 0 1 0"/>
<feBlend mode="normal" in2="BackgroundImageFix" result="effect1_dropShadow_509_1352"/>
<feColorMatrix in="SourceAlpha" type="matrix" values="0 0 0 0 0 0 0 0 0 0 0 0 0 0 0 0 0 0 127 0" result="hardAlpha"/>
<feOffset dy="-0.931053"/>
<feGaussianBlur stdDeviation="4.65527"/>
<feComposite in2="hardAlpha" operator="out"/>
<feColorMatrix type="matrix" values="0 0 0 0 0.48825 0 0 0 0 0.372778 0 0 0 0 0.733333 0 0 0 1 0"/>
<feBlend mode="normal" in2="effect1_dropShadow_509_1352" result="effect2_dropShadow_509_1352"/>
<feBlend mode="normal" in="SourceGraphic" in2="effect2_dropShadow_509_1352" result="shape"/>
</filter>
<filter id="filter2_d_509_1352" x="12.8739" y="100.519" width="156.135" height="101.292" filterUnits="userSpaceOnUse" color-interpolation-filters="sRGB">
<feFlood flood-opacity="0" result="BackgroundImageFix"/>
<feColorMatrix in="SourceAlpha" type="matrix" values="0 0 0 0 0 0 0 0 0 0 0 0 0 0 0 0 0 0 127 0" result="hardAlpha"/>
<feOffset dy="0.465527"/>
<feGaussianBlur stdDeviation="2.32763"/>
<feComposite in2="hardAlpha" operator="out"/>
<feColorMatrix type="matrix" values="0 0 0 0 0.440043 0 0 0 0 0.20092 0 0 0 0 0.679167 0 0 0 0.3 0"/>
<feBlend mode="normal" in2="BackgroundImageFix" result="effect1_dropShadow_509_1352"/>
<feBlend mode="normal" in="SourceGraphic" in2="effect1_dropShadow_509_1352" result="shape"/>
</filter>
<filter id="filter3_d_509_1352" x="-1.51587" y="36.2431" width="184.913" height="108.73" filterUnits="userSpaceOnUse" color-interpolation-filters="sRGB">
<feFlood flood-opacity="0" result="BackgroundImageFix"/>
<feColorMatrix in="SourceAlpha" type="matrix" values="0 0 0 0 0 0 0 0 0 0 0 0 0 0 0 0 0 0 127 0" result="hardAlpha"/>
<feOffset dy="0.465527"/>
<feGaussianBlur stdDeviation="1.16382"/>
<feComposite in2="hardAlpha" operator="out"/>
<feColorMatrix type="matrix" values="0 0 0 0 0.369333 0 0 0 0 0.0916667 0 0 0 0 0.5 0 0 0 0.15 0"/>
<feBlend mode="normal" in2="BackgroundImageFix" result="effect1_dropShadow_509_1352"/>
<feBlend mode="normal" in="SourceGraphic" in2="effect1_dropShadow_509_1352" result="shape"/>
</filter>
<filter id="filter4_d_509_1352" x="17.977" y="15.0395" width="146.858" height="97.3945" filterUnits="userSpaceOnUse" color-interpolation-filters="sRGB">
<feFlood flood-opacity="0" result="BackgroundImageFix"/>
<feColorMatrix in="SourceAlpha" type="matrix" values="0 0 0 0 0 0 0 0 0 0 0 0 0 0 0 0 0 0 127 0" result="hardAlpha"/>
<feOffset dx="0.465527" dy="0.465527"/>
<feGaussianBlur stdDeviation="1.74573"/>
<feComposite in2="hardAlpha" operator="out"/>
<feColorMatrix type="matrix" values="0 0 0 0 0.440043 0 0 0 0 0.20092 0 0 0 0 0.679167 0 0 0 0.2 0"/>
<feBlend mode="normal" in2="BackgroundImageFix" result="effect1_dropShadow_509_1352"/>
<feBlend mode="normal" in="SourceGraphic" in2="effect1_dropShadow_509_1352" result="shape"/>
</filter>
<linearGradient id="paint0_linear_509_1352" x1="91.1864" y1="248.824" x2="91.1864" y2="306.062" gradientUnits="userSpaceOnUse">
<stop stop-color="white"/>
<stop offset="0.223958" stop-color="#6BE4FF"/>
<stop offset="0.623188" stop-color="#371B73" stop-opacity="0.6"/>
<stop offset="1" stop-color="#0A1153" stop-opacity="0.4"/>
</linearGradient>
<linearGradient id="paint1_linear_509_1352" x1="140.956" y1="202.829" x2="140.956" y2="245.174" gradientUnits="userSpaceOnUse">
<stop stop-color="white"/>
<stop offset="0.223958" stop-color="#6BE4FF"/>
<stop offset="0.623188" stop-color="#371B73" stop-opacity="0.6"/>
<stop offset="1" stop-color="#0A1153" stop-opacity="0.4"/>
</linearGradient>
<radialGradient id="paint2_radial_509_1352" cx="0" cy="0" r="1" gradientUnits="userSpaceOnUse" gradientTransform="translate(65.7387 123.214) rotate(90) scale(122.527)">
<stop stop-color="#FF65C1"/>
<stop offset="1" stop-color="#FF65C1" stop-opacity="0"/>
</radialGradient>
<linearGradient id="paint3_linear_509_1352" x1="90.9415" y1="104.709" x2="90.9415" y2="196.69" gradientUnits="userSpaceOnUse">
<stop stop-color="#13154D"/>
<stop offset="1" stop-color="#8E92EE" stop-opacity="0"/>
</linearGradient>
<linearGradient id="paint4_linear_509_1352" x1="127.403" y1="156.498" x2="131.558" y2="202.895" gradientUnits="userSpaceOnUse">
<stop stop-color="white" stop-opacity="0"/>
<stop offset="1" stop-color="white"/>
</linearGradient>
<radialGradient id="paint5_radial_509_1352" cx="0" cy="0" r="1" gradientUnits="userSpaceOnUse" gradientTransform="translate(-2.19408 141.695) rotate(-19.6638) scale(197.806)">
<stop offset="0.249306" stop-color="white"/>
<stop offset="0.48315" stop-color="#FF8FED" stop-opacity="0.5"/>
<stop offset="0.627037" stop-color="#220C7A" stop-opacity="0.5"/>
</radialGradient>
<linearGradient id="paint6_linear_509_1352" x1="7.31588" y1="134.535" x2="179.899" y2="115.056" gradientUnits="userSpaceOnUse">
<stop stop-color="white"/>
<stop offset="1" stop-color="#12178E" stop-opacity="0.4"/>
</linearGradient>
<linearGradient id="paint7_linear_509_1352" x1="105.398" y1="199.059" x2="77.8475" y2="133.331" gradientUnits="userSpaceOnUse">
<stop offset="0.0011346" stop-color="white"/>
<stop offset="1" stop-color="white" stop-opacity="0"/>
</linearGradient>
<radialGradient id="paint8_radial_509_1352" cx="0" cy="0" r="1" gradientUnits="userSpaceOnUse" gradientTransform="translate(38.7626 142.846) rotate(-14.8494) scale(136.693)">
<stop offset="0.239373" stop-color="white"/>
<stop offset="0.410099" stop-color="#FFCEF1"/>
<stop offset="0.67492" stop-color="#B6B9FF"/>
<stop offset="0.861176" stop-color="#FFA8E7"/>
<stop offset="1" stop-color="white"/>
</radialGradient>
<radialGradient id="paint9_radial_509_1352" cx="0" cy="0" r="1" gradientUnits="userSpaceOnUse" gradientTransform="translate(156.299 161.138) rotate(-121.724) scale(78.5991)">
<stop stop-color="#3F52FF"/>
<stop offset="1" stop-color="#3F52FF" stop-opacity="0"/>
</radialGradient>
<linearGradient id="paint10_linear_509_1352" x1="2.7526" y1="86.5558" x2="181.07" y2="92.0958" gradientUnits="userSpaceOnUse">
<stop stop-color="white"/>
<stop offset="1" stop-color="#5653FF" stop-opacity="0.2"/>
</linearGradient>
<linearGradient id="paint11_linear_509_1352" x1="79.072" y1="178.92" x2="73.4686" y2="94.0371" gradientUnits="userSpaceOnUse">
<stop stop-color="white"/>
<stop offset="1" stop-color="white" stop-opacity="0"/>
</linearGradient>
<linearGradient id="paint12_linear_509_1352" x1="90.9405" y1="18.0654" x2="90.9405" y2="108.477" gradientUnits="userSpaceOnUse">
<stop stop-color="#13154D" stop-opacity="0.5"/>
<stop offset="1" stop-color="#8E92EE" stop-opacity="0"/>
</linearGradient>
<linearGradient id="paint13_linear_509_1352" x1="103.164" y1="128.106" x2="112.441" y2="28.1298" gradientUnits="userSpaceOnUse">
<stop stop-color="white"/>
<stop offset="1" stop-color="white" stop-opacity="0"/>
</linearGradient>
<linearGradient id="paint14_linear_509_1352" x1="90.9415" y1="18.0654" x2="90.9415" y2="77.0743" gradientUnits="userSpaceOnUse">
<stop stop-color="#13154D"/>
<stop offset="1" stop-color="#8E92EE" stop-opacity="0"/>
</linearGradient>
<linearGradient id="paint15_linear_509_1352" x1="108.358" y1="120.488" x2="90.9415" y2="18.0654" gradientUnits="userSpaceOnUse">
<stop stop-color="white"/>
<stop offset="1" stop-color="white" stop-opacity="0"/>
</linearGradient>
<linearGradient id="paint16_linear_509_1352" x1="90.9412" y1="20.157" x2="90.9412" y2="54.8385" gradientUnits="userSpaceOnUse">
<stop stop-color="#13154D"/>
<stop offset="1" stop-color="#8E92EE" stop-opacity="0"/>
</linearGradient>
<linearGradient id="paint17_linear_509_1352" x1="104.549" y1="91.4036" x2="90.9412" y2="20.157" gradientUnits="userSpaceOnUse">
<stop stop-color="white"/>
<stop offset="1" stop-color="white" stop-opacity="0"/>
</linearGradient>
<radialGradient id="paint18_radial_509_1352" cx="0" cy="0" r="1" gradientUnits="userSpaceOnUse" gradientTransform="translate(-2.19408 141.695) rotate(-19.6638) scale(197.806)">
<stop offset="0.249306" stop-color="white"/>
<stop offset="0.48315" stop-color="#FF8FED" stop-opacity="0.5"/>
<stop offset="0.627037" stop-color="#220C7A" stop-opacity="0"/>
</radialGradient>
</defs>
</svg>
